{
  "accessors": [
    {
      "bufferView": 2,
      "componentType": 5126,
      "count": 65532,
      "max": [
        0.15766024589538574,
        0.3899017572402954,
        0.28975844383239746
      ],
      "min": [
        -0.24836671352386475,
        -0.6738324165344238,
        -0.27955639362335205
      ],
      "type": "VEC3"
    },
    {
      "bufferView": 2,
      "byteOffset": 786384,
      "componentType": 5126,
      "count": 65532,
      "max": [
        1.0,
        0.9999608993530273,
        0.9999650716781616
      ],
      "min": [
        -0.9999831914901733,
        -0.9999648332595825,
        -0.9999692440032959
      ],
      "type": "VEC3"
    },
    {
      "bufferView": 1,
      "componentType": 5126,
      "count": 65532,
      "max": [
        0.9617646336555481,
        0.9992560148239136
      ],
      "min": [
        0.0008032795158214867,
        0.0011863422114402056
      ],
      "type": "VEC2"
    },
    {
      "bufferView": 0,
      "componentType": 5125,
      "count": 371229,
      "type": "SCALAR"
    },
    {
      "bufferView": 2,
      "byteOffset": 1572768,
      "componentType": 5126,
      "count": 40045,
      "max": [
        0.1557706594467163,
        0.39056122303009033,
        0.2993549108505249
      ],
      "min": [
        -0.2533224821090698,
        -0.5061451196670532,
        -0.30754590034484863
      ],
      "type": "VEC3"
    },
    {
      "bufferView": 2,
      "byteOffset": 2053308,
      "componentType": 5126,
      "count": 40045,
      "max": [
        0.9999897480010986,
        0.9999817609786987,
        0.999984860420227
      ],
      "min": [
        -0.9999891519546509,
        -0.9999619722366333,
        -0.9999887943267822
      ],
      "type": "VEC3"
    },
    {
      "bufferView": 1,
      "byteOffset": 524256,
      "componentType": 5126,
      "count": 40045,
      "max": [
        0.9962014555931091,
        0.9992220997810364
      ],
      "min": [
        0.00227130064740777,
        0.04216684401035309
      ],
      "type": "VEC2"
    },
    {
      "bufferView": 0,
      "byteOffset": 1484916,
      "componentType": 5125,
      "count": 224817,
      "type": "SCALAR"
    },
    {
      "bufferView": 2,
      "byteOffset": 2533848,
      "componentType": 5126,
      "count": 65532,
      "max": [
        0.21529895067214966,
        0.2771174907684326,
        0.24885813891887665
      ],
      "min": [
        -0.3170943260192871,
        -0.23487818241119385,
        -0.24462002515792847
      ],
      "type": "VEC3"
    },
    {
      "bufferView": 2,
      "byteOffset": 3320232,
      "componentType": 5126,
      "count": 65532,
      "max": [
        0.9999567270278931,
        0.9999918937683105,
        0.9999516010284424
      ],
      "min": [
        -0.9997555017471313,
        -0.9999853372573853,
        -0.9999755620956421
      ],
      "type": "VEC3"
    },
    {
      "bufferView": 1,
      "byteOffset": 844616,
      "componentType": 5126,
      "count": 65532,
      "max": [
        0.9949752688407898,
        0.9992190003395081
      ],
      "min": [
        0.0010550165316089988,
        0.0011944997822865844
      ],
      "type": "VEC2"
    },
    {
      "bufferView": 0,
      "byteOffset": 2384184,
      "componentType": 5125,
      "count": 374241,
      "type": "SCALAR"
    },
    {
      "bufferView": 2,
      "byteOffset": 4106616,
      "componentType": 5126,
      "count": 18073,
      "max": [
        0.21581590175628662,
        0.25124430656433105,
        0.17724588513374329
      ],
      "min": [
        -0.3168337345123291,
        -0.2346588373184204,
        -0.24059218168258667
      ],
      "type": "VEC3"
    },
    {
      "bufferView": 2,
      "byteOffset": 4323492,
      "componentType": 5126,
      "count": 18073,
      "max": [
        0.9999979734420776,
        0.9986655116081238,
        0.9991246461868286
      ],
      "min": [
        -0.9989075064659119,
        -0.9999853372573853,
        -0.9982019066810608
      ],
      "type": "VEC3"
    },
    {
      "bufferView": 1,
      "byteOffset": 1368872,
      "componentType": 5126,
      "count": 18073,
      "max": [
        0.9948236346244812,
        0.9752023220062256
      ],
      "min": [
        0.5188948512077332,
        0.024550341069698334
      ],
      "type": "VEC2"
    },
    {
      "bufferView": 0,
      "byteOffset": 3881148,
      "componentType": 5125,
      "count": 91389,
      "type": "SCALAR"
    },
    {
      "bufferView": 2,
      "byteOffset": 4540368,
      "componentType": 5126,
      "count": 65532,
      "max": [
        0.23251986503601074,
        0.4245023727416992,
        0.7423386573791504
      ],
      "min": [
        -0.34487152099609375,
        -0.46868157386779785,
        -0.6952805519104004
      ],
      "type": "VEC3"
    },
    {
      "bufferView": 2,
      "byteOffset": 5326752,
      "componentType": 5126,
      "count": 65532,
      "max": [
        0.9999996423721313,
        0.9999862909317017,
        0.9999630451202393
      ],
      "min": [
        -0.999992847442627,
        -0.9999858140945435,
        -0.9998000860214233
      ],
      "type": "VEC3"
    },
    {
      "bufferView": 1,
      "byteOffset": 1513456,
      "componentType": 5126,
      "count": 65532,
      "max": [
        0.9962850213050842,
        0.9990359544754028
      ],
      "min": [
        0.0007810000097379088,
        0.0016403233166784048
      ],
      "type": "VEC2"
    },
    {
      "bufferView": 0,
      "byteOffset": 4246704,
      "componentType": 5125,
      "count": 371466,
      "type": "SCALAR"
    },
    {
      "bufferView": 2,
      "byteOffset": 6113136,
      "componentType": 5126,
      "count": 64654,
      "max": [
        0.23135238885879517,
        0.4303271770477295,
        0.41833436489105225
      ],
      "min": [
        -0.40396201610565186,
        -0.47461509704589844,
        -0.7054935693740845
      ],
      "type": "VEC3"
    },
    {
      "bufferView": 2,
      "byteOffset": 6888984,
      "componentType": 5126,
      "count": 64654,
      "max": [
        0.9983823299407959,
        0.9999842643737793,
        0.9998297691345215
      ],
      "min": [
        -0.9999991655349731,
        -0.9999864101409912,
        -0.9999887943267822
      ],
      "type": "VEC3"
    },
    {
      "bufferView": 1,
      "byteOffset": 2037712,
      "componentType": 5126,
      "count": 64654,
      "max": [
        0.9236421585083008,
        0.9991486668586731
      ],
      "min": [
        0.0011429345468059182,
        0.31345099210739136
      ],
      "type": "VEC2"
    },
    {
      "bufferView": 0,
      "byteOffset": 5732568,
      "componentType": 5125,
      "count": 378534,
      "type": "SCALAR"
    },
    {
      "bufferView": 2,
      "byteOffset": 7664832,
      "componentType": 5126,
      "count": 65532,
      "max": [
        0.33037298917770386,
        0.3295038938522339,
        0.6501255035400391
      ],
      "min": [
        -0.28170788288116455,
        -0.4144059419631958,
        -0.5801768898963928
      ],
      "type": "VEC3"
    },
    {
      "bufferView": 2,
      "byteOffset": 8451216,
      "componentType": 5126,
      "count": 65532,
      "max": [
        0.999998927116394,
        0.999976634979248,
        0.999968409538269
      ],
      "min": [
        -0.9997097253799438,
        -0.9999737739562988,
        -0.9989126324653625
      ],
      "type": "VEC3"
    },
    {
      "bufferView": 1,
      "byteOffset": 2554944,
      "componentType": 5126,
      "count": 65532,
      "max": [
        0.9901944398880005,
        0.7912942171096802
      ],
      "min": [
        0.04910700023174286,
        0.08166775852441788
      ],
      "type": "VEC2"
    },
    {
      "bufferView": 0,
      "byteOffset": 7246704,
      "componentType": 5125,
      "count": 381303,
      "type": "SCALAR"
    },
    {
      "bufferView": 2,
      "byteOffset": 9237600,
      "componentType": 5126,
      "count": 63588,
      "max": [
        0.3275865316390991,
        0.3284015655517578,
        0.6501255035400391
      ],
      "min": [
        -0.31359076499938965,
        -0.4144059419631958,
        -0.5823947787284851
      ],
      "type": "VEC3"
    },
    {
      "bufferView": 2,
      "byteOffset": 10000656,
      "componentType": 5126,
      "count": 63588,
      "max": [
        0.9988675117492676,
        0.999969482421875,
        0.99916672706604
      ],
      "min": [
        -0.9999935626983643,
        -0.9999297857284546,
        -0.9999849796295166
      ],
      "type": "VEC3"
    },
    {
      "bufferView": 1,
      "byteOffset": 3079200,
      "componentType": 5126,
      "count": 63588,
      "max": [
        0.9891030788421631,
        0.9992389678955078
      ],
      "min": [
        0.0010178270749747753,
        0.3127259910106659
      ],
      "type": "VEC2"
    },
    {
      "bufferView": 0,
      "byteOffset": 8771916,
      "componentType": 5125,
      "count": 368697,
      "type": "SCALAR"
    }
  ],
  "asset": {
    "extras": {
      "author": "osuecampus (https://sketchfab.com/osuecampus)",
      "license": "CC-BY-4.0 (http://creativecommons.org/licenses/by/4.0/)",
      "source": "https://sketchfab.com/3d-models/human-brain-right-hemisphere-9fe7e9668c664df9bcb00b95816a2f99",
      "title": "Human Brain - right hemisphere"
    },
    "generator": "Sketchfab-12.66.0",
    "version": "2.0"
  },
  "bufferViews": [
    {
      "buffer": 0,
      "byteLength": 10246704,
      "name": "floatBufferViews",
      "target": 34963
    },
    {
      "buffer": 0,
      "byteLength": 3587904,
      "byteOffset": 10246704,
      "byteStride": 8,
      "name": "floatBufferViews",
      "target": 34962
    },
    {
      "buffer": 0,
      "byteLength": 10763712,
      "byteOffset": 13834608,
      "byteStride": 12,
      "name": "floatBufferViews",
      "target": 34962
    }
  ],
  "buffers": [
    {
      "byteLength": 24598320,
      "uri": "scene.bin"
    }
  ],
  "images": [
    {
      "uri": "textures/material_0.002_baseColor.jpeg"
    },
    {
      "uri": "textures/material_0.004_baseColor.jpeg"
    },
    {
      "uri": "textures/material_0.006_baseColor.jpeg"
    },
    {
      "uri": "textures/material_0.008_baseColor.jpeg"
    }
  ],
  "materials": [
    {
      "doubleSided": true,
      "name": "material_0.002",
      "pbrMetallicRoughness": {
        "baseColorTexture": {
          "index": 0
        },
        "metallicFactor": 0.0,
        "roughnessFactor": 0.2721729400978552
      }
    },
    {
      "doubleSided": true,
      "name": "material_0.004",
      "pbrMetallicRoughness": {
        "baseColorTexture": {
          "index": 1
        },
        "metallicFactor": 0.0,
        "roughnessFactor": 0.20805681296839834
      }
    },
    {
      "doubleSided": true,
      "name": "material_0.006",
      "pbrMetallicRoughness": {
        "baseColorTexture": {
          "index": 2
        },
        "metallicFactor": 0.0,
        "roughnessFactor": 0.19523358754250697
      }
    },
    {
      "doubleSided": true,
      "name": "material_0.008",
      "pbrMetallicRoughness": {
        "baseColorTexture": {
          "index": 3
        },
        "metallicFactor": 0.0,
        "roughnessFactor": 0.20164520025545266
      }
    }
  ],
  "meshes": [
    {
      "name": "Object_0",
      "primitives": [
        {
          "attributes": {
            "NORMAL": 1,
            "POSITION": 0,
            "TEXCOORD_0": 2
          },
          "indices": 3,
          "material": 0,
          "mode": 4
        }
      ]
    },
    {
      "name": "Object_1",
      "primitives": [
        {
          "attributes": {
            "NORMAL": 5,
            "POSITION": 4,
            "TEXCOORD_0": 6
          },
          "indices": 7,
          "material": 0,
          "mode": 4
        }
      ]
    },
    {
      "name": "Object_2",
      "primitives": [
        {
          "attributes": {
            "NORMAL": 9,
            "POSITION": 8,
            "TEXCOORD_0": 10
          },
          "indices": 11,
          "material": 1,
          "mode": 4
        }
      ]
    },
    {
      "name": "Object_3",
      "primitives": [
        {
          "attributes": {
            "NORMAL": 13,
            "POSITION": 12,
            "TEXCOORD_0": 14
          },
          "indices": 15,
          "material": 1,
          "mode": 4
        }
      ]
    },
    {
      "name": "Object_4",
      "primitives": [
        {
          "attributes": {
            "NORMAL": 17,
            "POSITION": 16,
            "TEXCOORD_0": 18
          },
          "indices": 19,
          "material": 2,
          "mode": 4
        }
      ]
    },
    {
      "name": "Object_5",
      "primitives": [
        {
          "attributes": {
            "NORMAL": 21,
            "POSITION": 20,
            "TEXCOORD_0": 22
          },
          "indices": 23,
          "material": 2,
          "mode": 4
        }
      ]
    },
    {
      "name": "Object_6",
      "primitives": [
        {
          "attributes": {
            "NORMAL": 25,
            "POSITION": 24,
            "TEXCOORD_0": 26
          },
          "indices": 27,
          "material": 3,
          "mode": 4
        }
      ]
    },
    {
      "name": "Object_7",
      "primitives": [
        {
          "attributes": {
            "NORMAL": 29,
            "POSITION": 28,
            "TEXCOORD_0": 30
          },
          "indices": 31,
          "material": 3,
          "mode": 4
        }
      ]
    }
  ],
  "nodes": [
    {
      "children": [
        1
      ],
      "matrix": [
        1.0,
        0.0,
        0.0,
        0.0,
        0.0,
        2.220446049250313e-16,
        -1.0,
        0.0,
        0.0,
        1.0,
        2.220446049250313e-16,
        0.0,
        0.0,
        0.0,
        0.0,
        1.0
      ],
      "name": "Sketchfab_model"
    },
    {
      "children": [
        2
      ],
      "name": "root"
    },
    {
      "children": [
        3,
        6,
        9,
        12
      ],
      "matrix": [
        1.0,
        0.0,
        0.0,
        0.0,
        0.0,
        2.220446049250313e-16,
        1.0,
        0.0,
        0.0,
        -1.0,
        2.220446049250313e-16,
        0.0,
        0.0,
        0.0,
        0.0,
        1.0
      ],
      "name": "GLTF_SceneRootNode"
    },
    {
      "children": [
        4,
        5
      ],
      "matrix": [
        1.0,
        0.0,
        0.0,
        0.0,
        0.0,
        1.0,
        0.0,
        0.0,
        0.0,
        0.0,
        1.0,
        0.0,
        -0.047884345054626465,
        -0.015575557947158813,
        0.1557023823261261,
        1.0
      ],
      "name": "BrainStem_R_0"
    },
    {
      "mesh": 0,
      "name": "Object_4"
    },
    {
      "mesh": 1,
      "name": "Object_5"
    },
    {
      "children": [
        7,
        8
      ],
      "matrix": [
        1.0,
        0.0,
        0.0,
        0.0,
        0.0,
        1.0,
        0.0,
        0.0,
        0.0,
        0.0,
        1.0,
        0.0,
        -0.10452675819396973,
        -0.38611796498298645,
        -0.024692833423614502,
        1.0
      ],
      "name": "Cerebellum_R_1"
    },
    {
      "mesh": 2,
      "name": "Object_7"
    },
    {
      "mesh": 3,
      "name": "Object_8"
    },
    {
      "children": [
        10,
        11
      ],
      "matrix": [
        1.0,
        0.0,
        0.0,
        0.0,
        0.0,
        1.0,
        0.0,
        0.0,
        0.0,
        0.0,
        1.0,
        0.0,
        -0.11965548992156982,
        0.31339070200920105,
        0.06250986456871033,
        1.0
      ],
      "name": "Frontal-parietal_R_2"
    },
    {
      "mesh": 4,
      "name": "Object_10"
    },
    {
      "mesh": 5,
      "name": "Object_11"
    },
    {
      "children": [
        13,
        14
      ],
      "matrix": [
        1.0,
        0.0,
        0.0,
        0.0,
        0.0,
        1.0,
        0.0,
        0.0,
        0.0,
        0.0,
        1.0,
        0.0,
        -0.20781803131103516,
        -0.12116661667823792,
        -0.03990703821182251,
        1.0
      ],
      "name": "Temporal_R_3"
    },
    {
      "mesh": 6,
      "name": "Object_13"
    },
    {
      "mesh": 7,
      "name": "Object_14"
    }
  ],
  "samplers": [
    {
      "magFilter": 9729,
      "minFilter": 9987,
      "wrapS": 10497,
      "wrapT": 10497
    }
  ],
  "scene": 0,
  "scenes": [
    {
      "name": "Sketchfab_Scene",
      "nodes": [
        0
      ]
    }
  ],
  "textures": [
    {
      "sampler": 0,
      "source": 0
    },
    {
      "sampler": 0,
      "source": 1
    },
    {
      "sampler": 0,
      "source": 2
    },
    {
      "sampler": 0,
      "source": 3
    }
  ]
}
